<?xml version="1.0" encoding="UTF-8" standalone="no"?>
<!-- Created with Inkscape (http://www.inkscape.org/) -->

<svg
   xmlns:dc="http://purl.org/dc/elements/1.1/"
   xmlns:cc="http://creativecommons.org/ns#"
   xmlns:rdf="http://www.w3.org/1999/02/22-rdf-syntax-ns#"
   xmlns:svg="http://www.w3.org/2000/svg"
   xmlns="http://www.w3.org/2000/svg"
   xmlns:sodipodi="http://sodipodi.sourceforge.net/DTD/sodipodi-0.dtd"
   xmlns:inkscape="http://www.inkscape.org/namespaces/inkscape"
   width="211"
   height="211"
   id="svg2"
   version="1.1"
   inkscape:version="0.48.0 r9654"
   sodipodi:docname="setl-spot-distances-inter2.svg"
   inkscape:export-filename="/home/serrano/Projects/python/setlyze/sphinx-docs/source/setl_plate_inter_distances2.png"
   inkscape:export-xdpi="106.63507"
   inkscape:export-ydpi="106.63507">
  <defs
     id="defs4" />
  <sodipodi:namedview
     id="base"
     pagecolor="#ffffff"
     bordercolor="#666666"
     borderopacity="1.0"
     inkscape:pageopacity="0.0"
     inkscape:pageshadow="2"
     inkscape:zoom="1.979899"
     inkscape:cx="65.665088"
     inkscape:cy="102.44794"
     inkscape:document-units="px"
     inkscape:current-layer="layer1"
     showgrid="true"
     fit-margin-left="5"
     fit-margin-top="5"
     fit-margin-right="5"
     fit-margin-bottom="5"
     inkscape:window-width="1366"
     inkscape:window-height="715"
     inkscape:window-x="0"
     inkscape:window-y="25"
     inkscape:window-maximized="1">
    <inkscape:grid
       type="xygrid"
       id="grid2987"
       empspacing="5"
       visible="true"
       enabled="true"
       snapvisiblegridlinesonly="true" />
  </sodipodi:namedview>
  <metadata
     id="metadata7">
    <rdf:RDF>
      <cc:Work
         rdf:about="">
        <dc:format>image/svg+xml</dc:format>
        <dc:type
           rdf:resource="http://purl.org/dc/dcmitype/StillImage" />
        <dc:title></dc:title>
      </cc:Work>
    </rdf:RDF>
  </metadata>
  <g
     inkscape:label="Grid"
     inkscape:groupmode="layer"
     id="layer1"
     transform="translate(-34.5,-56.862183)">
    <path
       id="rect2989-5-5"
       style="fill:none;stroke:#777777;stroke-width:2;stroke-linecap:butt;stroke-linejoin:round;stroke-miterlimit:4;stroke-opacity:1"
       d="m 200,222.36218 40,0 0,40 -40,0 z m -40,0 40,0 0,40 -40,0 z m -40,0 40,0 0,40 -40,0 z m -40,0 40,0 0,40 -40,0 z m -40,0 40,0 0,40 -40,0 z m 160,-40 40,0 0,40 -40,0 z m -40,0 40,0 0,40 -40,0 z m -40,0 40,0 0,40 -40,0 z m -40,0 40,0 0,40 -40,0 z m -40,0 40,0 0,40 -40,0 z m 160,-40 40,0 0,40 -40,0 z m -40,0 40,0 0,40 -40,0 z m -40,0 40,0 0,40 -40,0 z m -40,0 40,0 0,40 -40,0 z m -40,0 40,0 0,40 -40,0 z m 160,-40 40,0 0,40 -40,0 z m -40,0 40,0 0,40 -40,0 z m -40,0 40,0 0,40 -40,0 z m -40,0 40,0 0,40 -40,0 z m -40,0 40,0 0,40 -40,0 z m 160,-39.999997 40,0 0,39.999997 -40,0 z m -40,0 40,0 0,39.999997 -40,0 z m -40,0 40,0 0,39.999997 -40,0 z m -40,0 40,0 0,39.999997 -40,0 z m -40,0 40,0 0,39.999997 -40,0 z" />
  </g>
  <g
     inkscape:groupmode="layer"
     id="layer2"
     inkscape:label="Lines">
    <path
       style="fill:none;stroke:#46a046;stroke-width:2;stroke-linecap:round;stroke-linejoin:miter;stroke-miterlimit:4;stroke-opacity:1;stroke-dasharray:none;display:inline"
       d="m 75,71 105,35"
       id="path3882"
       inkscape:connector-type="polyline"
       inkscape:connector-curvature="0"
       sodipodi:nodetypes="cc" />
    <path
       style="fill:none;stroke:#46a046;stroke-width:2;stroke-linecap:round;stroke-linejoin:miter;stroke-miterlimit:4;stroke-opacity:1;stroke-dasharray:none;display:inline"
       d="M 80,58 55,58"
       id="path3888"
       inkscape:connector-type="polyline"
       inkscape:connector-curvature="0"
       sodipodi:nodetypes="cc" />
    <path
       style="fill:none;stroke:#46a046;stroke-width:2;stroke-linecap:round;stroke-linejoin:miter;stroke-miterlimit:4;stroke-opacity:1;stroke-dasharray:none;display:inline"
       d="m 55,76 0,70"
       id="path3080"
       inkscape:connector-type="polyline"
       inkscape:connector-curvature="0"
       sodipodi:nodetypes="cc" />
  </g>
  <g
     inkscape:groupmode="layer"
     id="layer3"
     inkscape:label="Text">
    <text
       xml:space="preserve"
       style="font-size:40px;font-style:normal;font-weight:normal;text-align:justify;line-height:125%;letter-spacing:0px;word-spacing:0px;text-anchor:start;fill:#000000;fill-opacity:1;stroke:none;font-family:Bitstream Vera Sans"
       x="55"
       y="74.928574"
       id="text3252"
       sodipodi:linespacing="125%"><tspan
         sodipodi:role="line"
         x="55"
         y="74.928574"
         id="tspan3254"
         style="font-size:22px;font-style:normal;font-variant:normal;font-weight:normal;font-stretch:normal;font-family:Ubuntu;-inkscape-font-specification:Ubuntu"><tspan
           x="55"
           y="74.928574"
           style="font-size:22px;font-style:normal;font-variant:normal;font-weight:normal;font-stretch:normal;text-align:center;text-anchor:middle;font-family:Ubuntu;-inkscape-font-specification:Ubuntu"
           id="tspan3256">A</tspan></tspan></text>
    <text
       xml:space="preserve"
       style="font-size:40px;font-style:normal;font-weight:normal;text-align:justify;line-height:125%;letter-spacing:0px;word-spacing:0px;text-anchor:start;fill:#000000;fill-opacity:1;stroke:none;font-family:Bitstream Vera Sans"
       x="69"
       y="75"
       id="text3252-4"
       sodipodi:linespacing="125%"><tspan
         sodipodi:role="line"
         x="69"
         y="75"
         id="tspan3254-29"
         style="font-size:22px;font-style:normal;font-variant:normal;font-weight:normal;font-stretch:normal;font-family:Ubuntu;-inkscape-font-specification:Ubuntu">B</tspan></text>
    <text
       xml:space="preserve"
       style="font-size:40px;font-style:normal;font-weight:normal;text-align:justify;line-height:125%;letter-spacing:0px;word-spacing:0px;text-anchor:start;fill:#000000;fill-opacity:1;stroke:none;font-family:Bitstream Vera Sans"
       x="186.42857"
       y="113.14286"
       id="text3252-2"
       sodipodi:linespacing="125%"><tspan
         sodipodi:role="line"
         x="186.42857"
         y="113.14286"
         id="tspan3254-4"
         style="font-size:22px;font-style:normal;font-variant:normal;font-weight:normal;font-stretch:normal;font-family:Ubuntu;-inkscape-font-specification:Ubuntu"><tspan
           x="186.42857"
           y="113.14286"
           style="font-size:22px;font-style:normal;font-variant:normal;font-weight:normal;font-stretch:normal;text-align:center;text-anchor:middle;font-family:Ubuntu;-inkscape-font-specification:Ubuntu"
           id="tspan3256-7">A</tspan></tspan></text>
    <text
       xml:space="preserve"
       style="font-size:40px;font-style:normal;font-weight:normal;text-align:justify;line-height:125%;letter-spacing:0px;word-spacing:0px;text-anchor:start;fill:#000000;fill-opacity:1;stroke:none;font-family:Bitstream Vera Sans"
       x="58.57143"
       y="154.21428"
       id="text3252-4-0"
       sodipodi:linespacing="125%"><tspan
         sodipodi:role="line"
         x="58.57143"
         y="154.21428"
         id="tspan3254-29-4"
         style="font-size:22px;font-style:normal;font-variant:normal;font-weight:normal;font-stretch:normal;font-family:Ubuntu;-inkscape-font-specification:Ubuntu">B</tspan></text>
    <text
       xml:space="preserve"
       style="font-size:18.67425728px;font-style:normal;font-weight:normal;line-height:125%;letter-spacing:0px;word-spacing:0px;fill:#46a046;fill-opacity:1;stroke:none;font-family:Bitstream Vera Sans"
       x="63.759163"
       y="53.482521"
       id="text3869"
       sodipodi:linespacing="125%"
       transform="scale(0.97240925,1.0283736)"><tspan
         sodipodi:role="line"
         id="tspan3871"
         x="63.759163"
         y="53.482521"
         style="font-size:14px;font-style:normal;font-variant:normal;font-weight:normal;font-stretch:normal;fill:#46a046;fill-opacity:1;font-family:LMMathItalic5;-inkscape-font-specification:LMMathItalic5 Bold Italic">a</tspan></text>
    <text
       xml:space="preserve"
       style="font-size:18.67425728px;font-style:normal;font-weight:normal;line-height:125%;letter-spacing:0px;word-spacing:0px;fill:#46a046;fill-opacity:1;stroke:none;font-family:Bitstream Vera Sans"
       x="118.26296"
       y="98.213333"
       id="text3869-8"
       sodipodi:linespacing="125%"
       transform="scale(0.97240925,1.0283736)"><tspan
         sodipodi:role="line"
         id="tspan3871-6"
         x="118.26296"
         y="98.213333"
         style="font-size:14px;font-style:normal;font-variant:normal;font-weight:normal;font-stretch:normal;fill:#46a046;fill-opacity:1;font-family:LMMathItalic10;-inkscape-font-specification:LMMathItalic10 Bold Italic">b</tspan></text>
    <text
       xml:space="preserve"
       style="font-size:18.67425728px;font-style:normal;font-weight:normal;line-height:125%;letter-spacing:0px;word-spacing:0px;fill:#46a046;fill-opacity:1;stroke:none;font-family:Bitstream Vera Sans"
       x="61.702415"
       y="107.93742"
       id="text3869-8-9"
       sodipodi:linespacing="125%"
       transform="scale(0.97240925,1.0283736)"><tspan
         sodipodi:role="line"
         id="tspan3871-6-8"
         x="61.702415"
         y="107.93742"
         style="font-style:normal;font-variant:normal;font-weight:normal;font-stretch:normal;fill:#46a046;fill-opacity:1;font-family:LMMathItalic10;-inkscape-font-specification:LMMathItalic10 Italic;font-size:13.99999998999999917px">c</tspan></text>
  </g>
</svg>
